<svg xmlns="http://www.w3.org/2000/svg" width="1280" height="760" viewBox="0 0 1280 760" role="img" aria-label="Aetos compare screenshot map">
  <rect width="1280" height="760" fill="#050505"/>
  <rect x="40" y="36" width="1200" height="688" rx="18" fill="#0c0b0b" stroke="#2c2927"/>
  <text x="72" y="86" fill="#f2a94e" font-family="monospace" font-size="18">COMPARE BRANCHES</text>
  <rect x="72" y="126" width="500" height="190" rx="14" fill="#121110" stroke="#2c2927"/>
  <rect x="708" y="126" width="500" height="190" rx="14" fill="#121110" stroke="#2c2927"/>
  <text x="104" y="172" fill="#efe9df" font-family="Arial, sans-serif" font-size="24" font-weight="700">Base: Main Cut</text>
  <text x="740" y="172" fill="#efe9df" font-family="Arial, sans-serif" font-size="24" font-weight="700">Target: Viral Cut</text>
  <rect x="104" y="224" width="92" height="42" rx="8" fill="#4b5563"/>
  <rect x="204" y="224" width="128" height="42" rx="8" fill="#374151"/>
  <rect x="340" y="224" width="116" height="42" rx="8" fill="#4b5563"/>
  <rect x="464" y="224" width="74" height="42" rx="8" fill="#f2a94e" opacity="0.35"/>
  <rect x="740" y="224" width="48" height="42" rx="8" fill="#f2a94e" opacity="0.45"/>
  <rect x="796" y="224" width="106" height="42" rx="8" fill="#374151"/>
  <rect x="910" y="224" width="122" height="42" rx="8" fill="#4b5563"/>
  <rect x="1040" y="224" width="92" height="42" rx="8" fill="#374151"/>
  <rect x="1140" y="224" width="34" height="42" rx="8" fill="#f2a94e" opacity="0.45"/>
  <path d="M592 220 C630 190 654 190 688 220" stroke="#f2a94e" stroke-width="4" fill="none" stroke-dasharray="9 9"/>
  <rect x="72" y="374" width="1136" height="250" rx="14" fill="#121110" stroke="#2c2927"/>
  <text x="104" y="420" fill="#efe9df" font-family="Arial, sans-serif" font-size="24" font-weight="700">Semantic Diff</text>
  <text x="104" y="470" fill="#f2a94e" font-family="monospace" font-size="16">1. Hook length: 8s -> 3s</text>
  <text x="104" y="512" fill="#f2a94e" font-family="monospace" font-size="16">2. Captions: minimal white -> bold white</text>
  <text x="104" y="554" fill="#f2a94e" font-family="monospace" font-size="16">3. CTA placement: final frame -> 00:28</text>
  <text x="104" y="596" fill="#8f8d88" font-family="Arial, sans-serif" font-size="17">Recommendation: keep hook and CTA. Review music intensity before merge.</text>
</svg>
