<svg xmlns="http://www.w3.org/2000/svg" width="1280" height="720" viewBox="0 0 1280 720" role="img" aria-label="Whiteboard collaboration and memory architecture diagram for Aetos">
  <rect width="1280" height="720" fill="#fbfaf6"/>
  <defs>
    <marker id="arrow" markerWidth="14" markerHeight="14" refX="11" refY="7" orient="auto">
      <path d="M2,2 L12,7 L2,12" fill="none" stroke="#2f2a24" stroke-width="2" stroke-linecap="round" stroke-linejoin="round"/>
    </marker>
  </defs>
  <text x="48" y="64" font-family="Verdana, sans-serif" font-size="34" font-weight="700" fill="#24201b">Collaboration + memory</text>
  <text x="50" y="96" font-family="monospace" font-size="16" fill="#7d7367">human judgment becomes reusable agent context</text>

  <g fill="#fffdf7" stroke="#2f2a24" stroke-width="2.5">
    <rect x="80" y="145" width="170" height="70" rx="16"/>
    <rect x="80" y="260" width="170" height="70" rx="16"/>
    <rect x="80" y="375" width="170" height="70" rx="16"/>
    <rect x="350" y="250" width="220" height="90" rx="18"/>
    <rect x="670" y="145" width="220" height="80" rx="18"/>
    <rect x="670" y="285" width="220" height="80" rx="18"/>
    <rect x="670" y="425" width="220" height="80" rx="18"/>
    <rect x="990" y="285" width="210" height="90" rx="18"/>
  </g>

  <g font-family="Verdana, sans-serif" fill="#24201b">
    <text x="120" y="188" font-size="20" font-weight="700">Editor</text>
    <text x="120" y="303" font-size="20" font-weight="700">Founder</text>
    <text x="120" y="418" font-size="20" font-weight="700">Client</text>
    <text x="386" y="285" font-size="20" font-weight="700">Workspace review</text>
    <text x="386" y="313" font-size="14">comments + branches</text>
    <text x="705" y="178" font-size="20" font-weight="700">Approve</text>
    <text x="705" y="204" font-size="14">positive signal</text>
    <text x="705" y="318" font-size="20" font-weight="700">Reject</text>
    <text x="705" y="344" font-size="14">avoid signal</text>
    <text x="705" y="458" font-size="20" font-weight="700">Merge</text>
    <text x="705" y="484" font-size="14">selected winners</text>
    <text x="1028" y="320" font-size="20" font-weight="700">Team memory</text>
    <text x="1028" y="348" font-size="14">future suggestions</text>
  </g>

  <g fill="none" stroke="#2f2a24" stroke-width="3" stroke-linecap="round" stroke-linejoin="round" marker-end="url(#arrow)">
    <path d="M250 180 C300 215 320 250 350 278"/>
    <path d="M250 295 C300 295 320 295 350 295"/>
    <path d="M250 410 C305 375 325 340 350 318"/>
    <path d="M570 278 C615 220 635 185 670 178"/>
    <path d="M570 298 C615 315 635 323 670 325"/>
    <path d="M570 318 C615 380 635 445 670 465"/>
    <path d="M890 185 C950 210 980 260 990 315"/>
    <path d="M890 325 C940 325 960 325 990 325"/>
    <path d="M890 465 C950 430 980 375 990 342"/>
  </g>

  <g font-family="monospace" font-size="15" fill="#7d7367">
    <text x="130" y="585">approved: keep hooks under 3.5s</text>
    <text x="130" y="615">rejected: avoid loud music for premium clients</text>
    <text x="130" y="645">merged: story order + brand-safe CTA placement</text>
  </g>
  <path d="M112 550 C360 535 620 552 875 540 C990 535 1080 542 1170 550" fill="none" stroke="#f2a94e" stroke-width="5" stroke-linecap="round"/>
</svg>
